<svg width="23" height="18" viewBox="0 0 23 18" fill="none" xmlns="http://www.w3.org/2000/svg">
<g id="Group 11146">
<path id="Vector" d="M17.1495 9.39844L16.335 11.3407H17.964L17.1495 9.39844Z" fill="#32D583"/>
<path id="Vector_2" d="M9.8457 12.4743V13.9511C9.8457 15.0028 10.7005 15.8576 11.7522 15.8576H17.4896L19.499 17.8671C19.5841 17.9521 19.7004 17.9968 19.8123 17.9968C19.8705 17.9968 19.9287 17.9834 19.9868 17.961C20.1524 17.8939 20.2598 17.7283 20.2598 17.5493V15.8576H20.4702C21.5219 15.8576 22.3767 15.0028 22.3767 13.9511V7.64087C22.3767 6.58917 21.5219 5.73438 20.4702 5.73438H15.2609V9.44444C15.2609 11.1137 13.9004 12.4743 12.2266 12.4743H9.8457ZM14.5941 13.1814L15.2519 11.6105V11.606L16.7377 8.05708C16.8049 7.88702 16.9705 7.77961 17.1495 7.77961C17.3285 7.77961 17.4941 7.88702 17.5612 8.05708L19.047 11.606L19.0515 11.6105L19.7049 13.1814C19.8034 13.4096 19.6959 13.6692 19.4677 13.7676C19.4095 13.79 19.3513 13.799 19.2932 13.799C19.1186 13.799 18.953 13.696 18.8814 13.526L18.3399 12.2281H15.959L15.4175 13.526C15.3235 13.7542 15.0595 13.8616 14.8357 13.7676C14.6075 13.6736 14.5001 13.4096 14.5941 13.1814Z" fill="#32D583"/>
<path id="Vector_3" d="M8.11826 4.8125H6.24756C6.44895 5.21528 6.75775 5.77023 7.18291 6.31622C7.60807 5.77023 7.91686 5.21528 8.11826 4.8125Z" fill="#32D583"/>
<path id="Vector_4" d="M2.13474 11.5822H2.44802V13.6095C2.44802 13.793 2.55543 13.9541 2.72101 14.0257C2.77919 14.0481 2.83737 14.0571 2.89555 14.0571C3.01191 14.0571 3.12379 14.0123 3.20883 13.9273L5.55839 11.5822H12.2267C13.4037 11.5822 14.3659 10.6245 14.3659 9.44746V2.13922C14.3659 0.9622 13.4037 0 12.2267 0H2.13474C0.957725 0 0 0.9622 0 2.13922V9.44299C0 10.6245 0.957725 11.5822 2.13474 11.5822ZM4.04572 3.92041H6.7354V3.02981C6.7354 2.78367 6.93232 2.58228 7.18294 2.58228C7.42908 2.58228 7.63047 2.78367 7.63047 3.02981V3.92041H10.3202C10.5663 3.92041 10.7677 4.1218 10.7677 4.36794C10.7677 4.61409 10.5663 4.81548 10.3202 4.81548H9.10734C8.9149 5.26301 8.48079 6.14018 7.78711 6.99497C8.32415 7.51411 8.97308 7.94822 9.73836 8.11381C9.98003 8.16751 10.1367 8.40471 10.083 8.64638C10.0382 8.85672 9.85025 8.99993 9.64438 8.99993C9.61305 8.99993 9.58173 8.99545 9.5504 8.9865C8.60162 8.78064 7.81396 8.26597 7.18294 7.65732C6.54744 8.26597 5.76425 8.78064 4.81548 8.9865C4.78415 8.99545 4.74835 8.99993 4.71702 8.99993C4.51115 8.99993 4.32766 8.85672 4.28291 8.64638C4.22921 8.40471 4.38137 8.16751 4.62304 8.11381C5.3928 7.94375 6.04172 7.51411 6.57429 6.99497C5.88061 6.14466 5.45098 5.26301 5.25406 4.81548H4.04572C3.7951 4.81548 3.59818 4.61409 3.59818 4.36794C3.59818 4.1218 3.7951 3.92041 4.04572 3.92041Z" fill="#32D583"/>
</g>
</svg>
