<svg width="20" height="20" viewBox="0 0 20 20" fill="none" xmlns="http://www.w3.org/2000/svg">
<path d="M8.94551 0.0471201L8.95051 0.05443C9.29541 0.01845 9.64561 0 10.0001 0C15.523 0 20.0001 4.47715 20.0001 10C20.0001 15.5228 15.523 20 10.0001 20C6.79084 20 3.93466 18.4882 2.10488 16.1379L2.10231 16.1374L2.10279 16.1353C0.784962 14.4414 0.00012207 12.3123 0.00012207 10C0.00012207 4.83804 3.91128 0.58957 8.93181 0.05639L8.94551 0.0471201ZM10.0001 1.5C9.94691 1.5 9.89381 1.50049 9.84081 1.50146C9.96331 1.74566 10.095 2.0343 10.2145 2.35179C10.5614 3.27352 10.8803 4.6329 10.3144 5.83787C9.79181 6.95068 8.88971 7.23859 8.22431 7.41051L8.13961 7.43235C7.48331 7.60154 7.23093 7.6666 7.04683 7.9461C6.87785 8.2026 6.90344 8.5284 7.10821 9.1957C7.1226 9.2426 7.13817 9.2922 7.15441 9.3439C7.23551 9.6023 7.33328 9.9138 7.38425 10.2067C7.44764 10.5711 7.46556 11.0344 7.2322 11.4822C7.00071 11.9264 6.69386 12.2292 6.33131 12.4267C5.99077 12.6123 5.63806 12.6826 5.37417 12.7294L5.2812 12.7458C4.76633 12.8364 4.52004 12.8798 4.28017 13.1368C4.09396 13.3362 3.97379 13.6885 3.9036 14.2149C3.87503 14.4291 3.85786 14.6415 3.8401 14.8611L3.83056 14.9782C3.81058 15.2205 3.7858 15.4994 3.73132 15.7388L3.73102 15.7402C5.285 17.4364 7.51835 18.5 10.0001 18.5C11.5771 18.5 13.0538 18.0705 14.3197 17.3222C14.2213 17.222 14.1145 17.1044 14.0092 16.9718C13.6697 16.5444 13.2244 15.8081 13.3789 14.939C13.4531 14.5211 13.6771 14.1712 13.8936 13.9029C14.1142 13.6295 14.3804 13.3769 14.6132 13.1626C14.6685 13.1117 14.7215 13.0633 14.7723 13.0169C14.9505 12.8542 15.1019 12.7159 15.2315 12.5802C15.4043 12.3991 15.4419 12.3175 15.4439 12.3133C15.5118 12.0886 15.4285 11.9294 15.3378 11.8592C15.2922 11.824 15.2311 11.7984 15.148 11.7978C15.0642 11.7971 14.9283 11.8222 14.7469 11.9372C14.5372 12.07 14.2321 12.152 13.9111 12.0228C13.6437 11.9151 13.4956 11.709 13.4245 11.5914C13.2806 11.3535 13.1997 11.0452 13.1471 10.8191C13.1065 10.6447 13.0677 10.4467 13.0324 10.2661C13.0182 10.1938 13.0046 10.1242 12.9916 10.0601C12.9411 9.8103 12.8985 9.6318 12.8575 9.5209C12.8575 9.5209 12.8519 9.5073 12.8383 9.4825C12.8236 9.4555 12.8028 9.421 12.7743 9.3777C12.7163 9.2894 12.6405 9.1857 12.5466 9.0613C12.5125 9.0161 12.4758 8.968 12.4374 8.9176C12.2763 8.7064 12.0843 8.4548 11.9211 8.206C11.7253 7.90761 11.504 7.51768 11.434 7.10184C11.3969 6.88146 11.3975 6.62694 11.489 6.36839C11.5826 6.10363 11.7536 5.88589 11.9755 5.7194C12.459 5.35683 13.1691 4.54683 13.7989 3.76036C14.0865 3.40123 14.3435 3.06476 14.5348 2.80938C13.2225 1.98001 11.6673 1.5 10.0001 1.5ZM15.7275 3.71921C15.5299 3.98266 15.2659 4.32814 14.9697 4.69797C14.368 5.44937 13.5704 6.38281 12.9202 6.88539C12.9456 6.98427 13.0205 7.14727 13.1752 7.38298C13.3063 7.58278 13.4561 7.77946 13.6142 7.98695C13.6568 8.0428 13.7003 8.0999 13.7438 8.1576C13.9162 8.386 14.1551 8.7047 14.2647 9.0014C14.3509 9.2349 14.4128 9.52 14.4619 9.7628C14.4792 9.8485 14.4952 9.9304 14.5106 10.0092C14.5361 10.1396 14.56 10.2616 14.5854 10.3786C15.1872 10.2069 15.7872 10.3106 16.2554 10.6726C16.864 11.1432 17.1181 11.9589 16.8798 12.7472C16.7705 13.1089 16.5158 13.4071 16.3166 13.6159C16.1476 13.7929 15.945 13.9777 15.7613 14.1452C15.7159 14.1867 15.6713 14.2274 15.629 14.2663C15.399 14.478 15.2056 14.6656 15.0611 14.8447C14.9125 15.0289 14.8659 15.144 14.8557 15.2014C14.8169 15.4199 14.9233 15.7109 15.1838 16.0388C15.3019 16.1875 15.4277 16.3128 15.5253 16.4015C15.5368 16.4119 15.5479 16.4218 15.5584 16.431C17.3601 14.8724 18.5001 12.5693 18.5001 10C18.5001 7.512 17.4312 5.27366 15.7275 3.71921ZM1.50012 10C1.50012 11.3984 1.83779 12.7178 2.43604 13.8814C2.52092 13.324 2.69806 12.6334 3.18366 12.1132C3.78348 11.4706 4.51926 11.3501 4.98179 11.2744C5.02807 11.2668 5.07187 11.2596 5.11226 11.2525C5.35995 11.2085 5.50319 11.1697 5.6137 11.1095C5.70221 11.0613 5.80152 10.9818 5.90199 10.789C5.91685 10.7605 5.9443 10.6815 5.90644 10.4638C5.87402 10.2775 5.81324 10.0826 5.73369 9.8276C5.71493 9.7674 5.69493 9.7033 5.67421 9.6357C5.48905 9.0324 5.19312 8.0335 5.79415 7.12099C6.31579 6.32904 7.15482 6.12658 7.68742 5.99806C7.74517 5.98412 7.79932 5.97106 7.84907 5.9582C8.41201 5.81276 8.73241 5.67794 8.95671 5.20026C9.25211 4.57127 9.12501 3.71532 8.81061 2.88019C8.66161 2.48421 8.48671 2.13625 8.34821 1.88653C8.30471 1.80813 8.26521 1.74015 8.23181 1.68419C4.38609 2.49793 1.50012 5.91193 1.50012 10Z" fill="url(#paint0_linear_1072_2984)"/>
<defs>
<linearGradient id="paint0_linear_1072_2984" x1="1.17754" y1="-2.43586e-06" x2="22.5916" y2="3.14371" gradientUnits="userSpaceOnUse">
<stop stop-color="#3B005F"/>
<stop offset="1" stop-color="#1466B1"/>
</linearGradient>
</defs>
</svg>
