<svg width="16" height="16" viewBox="0 0 16 16" fill="none" xmlns="http://www.w3.org/2000/svg">
<g id="file-06">
<path id="Icon" d="M9.33366 1.51172V4.26541C9.33366 4.63878 9.33366 4.82546 9.40632 4.96807C9.47024 5.09351 9.57222 5.1955 9.69766 5.25942C9.84027 5.33208 10.027 5.33208 10.4003 5.33208H13.154M10.667 8.66536H5.33366M10.667 11.332H5.33366M6.66699 5.9987H5.33366M9.33366 1.33203H5.86699C4.74689 1.33203 4.18683 1.33203 3.75901 1.55002C3.38269 1.74176 3.07673 2.04773 2.88498 2.42405C2.66699 2.85187 2.66699 3.41193 2.66699 4.53203V11.4654C2.66699 12.5855 2.66699 13.1455 2.88498 13.5733C3.07673 13.9497 3.38269 14.2556 3.75901 14.4474C4.18683 14.6654 4.74689 14.6654 5.86699 14.6654H10.1337C11.2538 14.6654 11.8138 14.6654 12.2416 14.4474C12.618 14.2556 12.9239 13.9497 13.1157 13.5733C13.3337 13.1455 13.3337 12.5855 13.3337 11.4654V5.33203L9.33366 1.33203Z" stroke="#1D2939" stroke-width="2" stroke-linecap="round" stroke-linejoin="round"/>
</g>
</svg>
